<?xml version="1.0" encoding="UTF-8" standalone="no"?>
<svg
   width="37.102886"
   height="36.796741"
   viewBox="0 0 37.102886 36.796741"
   fill="none"
   version="1.1"
   id="svg12"
   sodipodi:docname="logo-circle.svg"
   inkscape:export-filename="logo-circle.png"
   inkscape:export-xdpi="96"
   inkscape:export-ydpi="96"
   xmlns:inkscape="http://www.inkscape.org/namespaces/inkscape"
   xmlns:sodipodi="http://sodipodi.sourceforge.net/DTD/sodipodi-0.dtd"
   xmlns="http://www.w3.org/2000/svg"
   xmlns:svg="http://www.w3.org/2000/svg">
  <defs
     id="defs12" />
  <sodipodi:namedview
     id="namedview12"
     pagecolor="#ffffff"
     bordercolor="#000000"
     borderopacity="0.25"
     inkscape:showpageshadow="2"
     inkscape:pageopacity="0.0"
     inkscape:pagecheckerboard="0"
     inkscape:deskcolor="#d1d1d1">
    <inkscape:page
       x="0"
       y="0"
       width="37.102886"
       height="36.796741"
       id="page1"
       margin="0"
       bleed="0" />
  </sodipodi:namedview>
  <path
     d="m 20.550638,30.170007 c 0.0359,-3.6714 -0.8949,-6.657 -2.0789,-6.6686 -1.1841,-0.0116 -2.1731,2.9553 -2.2089,6.6267 -0.0359,3.6714 0.8949,6.6571 2.0789,6.6686 1.1841,0.0116 2.173,-2.9553 2.2089,-6.6267 z"
     fill="#ffc736"
     id="path1" />
  <path
     d="m 13.683538,29.336107 c 2.0152,-3.0691 2.8465,-6.084 1.8568,-6.7339 -0.9899,-0.6499 -3.426,1.3112 -5.4412,4.3803 -2.0152301,3.0692 -2.8465101,6.084 -1.8567501,6.734 0.98985,0.6499 3.4258501,-1.3112 5.4411501,-4.3804 z"
     fill="#ffc736"
     id="path2" />
  <path
     d="m 8.3492779,24.932807 c 3.3547601,-1.4922 5.6840601,-3.5789 5.2027601,-4.6608 -0.4812,-1.0819 -3.5908001,-0.7493 -6.9454801,0.7429 -3.35469,1.4922 -5.68407,3.5789 -5.20283,4.6609 0.48123,1.0819 3.59086,0.7492 6.94555,-0.743 z"
     fill="#ffc736"
     id="path3" />
  <path
     d="m 13.149438,17.238007 c 0.1802,-1.1703 -2.6156,-2.5718 -6.2443901,-3.1304 -3.62889,-0.5585 -6.71668,-0.0625 -6.89681,1.1078 -0.18013,1.1703 2.61561,2.5717 6.24448,3.1303 3.62882,0.5586 6.7166201,0.0626 6.8967201,-1.1077 z"
     fill="#ffc736"
     id="path4" />
  <path
     d="m 14.452338,14.450007 c 0.7842,-0.8872 -0.8104,-3.5775 -3.5615,-6.0089999 -2.7511501,-2.43139 -5.6170601,-3.6832 -6.4012001,-2.79595 -0.78414,0.88727 0.81042,3.57755 3.56157,6.0090499 2.7511301,2.4314 5.6170301,3.6832 6.4011301,2.7959 z"
     fill="#ffc736"
     id="path5" />
  <path
     d="m 17.047038,12.820707 c 1.1394,-0.3224 1.2526,-3.4477999 0.2529,-6.9806599 -0.9997,-3.53287 -2.7338,-6.13546007 -3.8731,-5.81305007 -1.1394,0.3224 -1.2526,3.44772007 -0.2529,6.98062007 0.9997,3.5327899 2.7338,6.1354899 3.8731,5.8130899 z"
     fill="#ffc736"
     id="path6" />
  <path
     d="m 24.092638,7.1175071 c 1.0692,-3.51246 1.0177,-6.63940007 -0.1151,-6.98421007 -1.1328,-0.34482 -2.9178,2.22307007 -3.987,5.73554007 -1.0692,3.51247 -1.0176,6.6393699 0.1152,6.9841699 1.1328,0.3448 2.9178,-2.223 3.9869,-5.7354999 z"
     fill="#ffc736"
     id="path7" />
  <path
     d="m 29.127038,11.863607 c 2.7982,-2.3771999 4.445,-5.0358499 3.6783,-5.9382199 -0.7666,-0.9024 -3.6565,0.29317 -6.4545,2.67032 -2.7982,2.3771999 -4.445,5.0357999 -3.6784,5.9381999 0.7667,0.9024 3.6565,-0.2931 6.4546,-2.6703 z"
     fill="#ffc736"
     id="path8" />
  <path
     d="m 30.791738,18.579907 c 3.6392,-0.4869 6.462,-1.833 6.3049,-3.0066 -0.1569,-1.1736 -3.2344,-1.7304 -6.8736,-1.2436 -3.6391,0.4869 -6.462,1.833 -6.3049,3.0067 0.157,1.1736 3.2344,1.7304 6.8736,1.2435 z"
     fill="#ffc736"
     id="path9" />
  <path
     d="m 35.486238,26.011207 c 0.5025,-1.0722 -1.7853,-3.2044 -5.1099,-4.7625 -3.3246,-1.5581 -6.427,-1.9519 -6.9295,-0.8797 -0.5025,1.0722 1.7853,3.2044 5.1099,4.7625 3.3246,1.558 6.4271,1.9519 6.9295,0.8797 z"
     fill="#ffc736"
     id="path10" />
  <path
     d="m 28.493038,33.922307 c 1.0024,-0.6302 0.2307,-3.6609 -1.7236,-6.7692 -1.9543,-3.1082 -4.3513,-5.1169 -5.3537,-4.4867 -1.0024,0.6302 -0.2307,3.661 1.7236,6.7692 1.9544,3.1082 4.3513,5.117 5.3537,4.4867 z"
     fill="#ffc736"
     id="path11" />
</svg>
